Billy is released after five years in prison. In the next moment, he kidnaps teenage student Layla and visits his parents with her, pretending she is his girlfriend and they will soon marry (and forcing her to say the same). 
 
http://www.imdb.com/title/tt0118789/


Director: Vincent Gallo

      Complete name : Buffalo 66 - 720p HDTV - stonie.mkv
      Format : Matroska
      File size : 2.04 GiB
      Duration : 1h 50mn
      Overall bit rate : 2 658 Kbps
      Movie name : GrupoHDS miguel_zaragoza
      Encoded date : UTC 2010-05-11 22:20:18
      Writing application : mkvmerge v3.2.0 (\'Beginnings\') built on Feb 12 2010 16:46:17
      Writing library : libebml v0.7.9 + libmatroska v0.8.1
   Video #1
      ID : 1
      Format : AVC
      Format/Info : Advanced Video Codec
      Format profile : High@L4.1
      Format settings, CABAC : Yes
      Format settings, ReFrames : 5 frames
      Muxing mode : Container profile=Unknown@4.1
      Codec ID : V_MPEG4/ISO/AVC
      Duration : 1h 49mn
      Bit rate : 2 221 Kbps
      Width : 1 280 pixels
      Height : 720 pixels
      Display aspect ratio : 16:9
      Frame rate : 23.976 fps
      Resolution : 24 bits
      Colorimetry : 4:2:0
      Scan type : Progressive
      Bits/(Pixel*Frame) : 0.101
      Stream size : 1.71 GiB (83%)
      Writing library : x264 core 80       
   Audio #2
      ID : 2
      Format : AC-3
      Format/Info : Audio Coding 3
      Codec ID : A_AC3
      Duration : 1h 50mn
      Bit rate mode : Constant
      Bit rate : 384 Kbps
      Channel(s) : 2 channels
      Channel positions : L R
      Sampling rate : 48.0 KHz
      Stream size : 302 MiB (14%)
      Language : English
   Text #3
      ID : 3
      Format : UTF-8
      Codec ID : S_TEXT/UTF8
      Codec ID/Info : UTF-8 Plain Text
      Language : English

